<svg width="32" height="32" viewBox="0 0 32 32" fill="none" xmlns="http://www.w3.org/2000/svg">
<path d="M6.49495 13C4.69832 13 3.16667 12.365 1.9 11.0949C0.633333 9.82492 0 8.29158 0 6.49495C0 4.69832 0.635017 3.16667 1.90505 1.9C3.17508 0.633333 4.70842 0 6.50505 0C8.30168 0 9.83333 0.635017 11.1 1.90505C12.3667 3.17508 13 4.70842 13 6.50505C13 8.30168 12.365 9.83333 11.0949 11.1C9.82492 12.3667 8.29158 13 6.49495 13ZM6.4941 10C7.4647 10 8.29167 9.6603 8.975 8.9809C9.65833 8.30147 10 7.47647 10 6.5059C10 5.5353 9.6603 4.70833 8.9809 4.025C8.30147 3.34167 7.47647 3 6.5059 3C5.5353 3 4.70833 3.3397 4.025 4.0191C3.34167 4.69853 3 5.52353 3 6.4941C3 7.4647 3.3397 8.29167 4.0191 8.975C4.69853 9.65833 5.52353 10 6.4941 10ZM25.4949 32C23.6983 32 22.1667 31.365 20.9 30.0949C19.6333 28.8249 19 27.2916 19 25.4949C19 23.6983 19.635 22.1667 20.9051 20.9C22.1751 19.6333 23.7084 19 25.5051 19C27.3017 19 28.8333 19.635 30.1 20.9051C31.3667 22.1751 32 23.7084 32 25.5051C32 27.3017 31.365 28.8333 30.0949 30.1C28.8249 31.3667 27.2916 32 25.4949 32ZM25.4941 29C26.4647 29 27.2917 28.6603 27.975 27.9809C28.6583 27.3015 29 26.4765 29 25.5059C29 24.5353 28.6603 23.7083 27.9809 23.025C27.3015 22.3417 26.4765 22 25.5059 22C24.5353 22 23.7083 22.3397 23.025 23.0191C22.3417 23.6985 22 24.5235 22 25.4941C22 26.4647 22.3397 27.2917 23.0191 27.975C23.6985 28.6583 24.5235 29 25.4941 29ZM2.1 32L0 29.9L29.9 0L32 2.1L2.1 32Z" fill="white"/>
</svg>
