<svg width="18" height="20" viewBox="0 0 18 20" fill="none" xmlns="http://www.w3.org/2000/svg">
<path d="M17.7119 10.2013C17.7119 9.45658 17.6516 8.91315 17.5211 8.34961H9.03668V11.7108H14.0169C13.9165 12.546 13.3743 13.804 12.1694 14.6493L12.1525 14.7618L14.8351 16.8447L15.021 16.8633C16.7279 15.2833 17.7119 12.9586 17.7119 10.2013Z" fill="#4285F4"/>
<path d="M9.03667 19.057C11.4765 19.057 13.5248 18.2519 15.021 16.8632L12.1694 14.6492C11.4063 15.1826 10.3821 15.5549 9.03667 15.5549C6.64698 15.5549 4.61876 13.975 3.89576 11.7913L3.78978 11.8003L1.00035 13.9639L0.963867 14.0656C2.44989 17.0242 5.50229 19.057 9.03667 19.057Z" fill="#34A853"/>
<path d="M3.89578 11.7912C3.70501 11.2276 3.5946 10.6238 3.5946 9.99985C3.5946 9.37588 3.70501 8.7721 3.88574 8.20856L3.88069 8.08854L1.0563 5.89014L0.963891 5.93419C0.351431 7.16194 0 8.54066 0 9.99985C0 11.459 0.351431 12.8377 0.963891 14.0654L3.89578 11.7912Z" fill="#FBBC05"/>
<path d="M9.03667 4.44492C10.7335 4.44492 11.8782 5.17955 12.5308 5.79346L15.0812 3.29771C13.5149 1.83852 11.4765 0.942871 9.03667 0.942871C5.50229 0.942871 2.44989 2.97567 0.963867 5.93429L3.88572 8.20866C4.61876 6.0249 6.64698 4.44492 9.03667 4.44492Z" fill="#EB4335"/>
</svg>
