<svg width="12" height="12" viewBox="0 0 12 12" fill="none" xmlns="http://www.w3.org/2000/svg">
<path d="M8.03182 6.17159L7.43182 5.57159C7.66818 4.92613 7.54545 4.38977 7.06364 3.96249C6.58182 3.53522 6.05909 3.42613 5.49545 3.63522L4.89545 3.03522C5.05 2.93522 5.22273 2.86249 5.41364 2.81704C5.60455 2.77159 5.8 2.74886 6 2.74886C6.64545 2.74886 7.19318 2.97386 7.64318 3.42386C8.09318 3.87386 8.31818 4.42159 8.31818 5.06704C8.31818 5.26704 8.29318 5.46477 8.24318 5.66022C8.19318 5.85568 8.12273 6.02613 8.03182 6.17159ZM9.79091 7.93068L9.24545 7.38522C9.69091 7.05795 10.0795 6.69204 10.4114 6.28749C10.7432 5.88295 10.9864 5.47613 11.1409 5.06704C10.6864 4.05795 10.0045 3.26022 9.09545 2.67386C8.18636 2.08749 7.2 1.79431 6.13636 1.79431C5.75455 1.79431 5.36364 1.83068 4.96364 1.9034C4.56364 1.97613 4.25 2.06249 4.02273 2.16249L3.39545 1.52159C3.71364 1.37613 4.12045 1.24886 4.61591 1.13977C5.11136 1.03068 5.59545 0.976131 6.06818 0.976131C7.36818 0.976131 8.55682 1.34659 9.63409 2.08749C10.7114 2.8284 11.5 3.82159 12 5.06704C11.7636 5.64886 11.4591 6.18068 11.0864 6.66249C10.7136 7.14431 10.2818 7.56704 9.79091 7.93068ZM10.5818 11.0125L8.29091 8.7625C7.97273 8.88977 7.61364 8.98749 7.21364 9.05568C6.81364 9.12386 6.40909 9.15795 6 9.15795C4.67273 9.15795 3.46818 8.78749 2.38636 8.04659C1.30455 7.30568 0.509091 6.31249 0 5.06704C0.181818 4.59431 0.434091 4.13295 0.756818 3.68295C1.07955 3.23295 1.47273 2.8034 1.93636 2.39431L0.218182 0.676131L0.790909 0.0897675L11.1136 10.4125L10.5818 11.0125ZM2.49545 2.96704C2.15909 3.21249 1.83409 3.53522 1.52045 3.93522C1.20682 4.33522 0.981818 4.71249 0.845455 5.06704C1.30909 6.07613 2.00682 6.87386 2.93864 7.46022C3.87045 8.04659 4.92727 8.33977 6.10909 8.33977C6.40909 8.33977 6.70455 8.32159 6.99545 8.28522C7.28636 8.24886 7.50455 8.19431 7.65 8.12159L6.77727 7.24886C6.67727 7.29431 6.55455 7.3284 6.40909 7.35113C6.26364 7.37386 6.12727 7.38522 6 7.38522C5.36364 7.38522 4.81818 7.16249 4.36364 6.71704C3.90909 6.27159 3.68182 5.72159 3.68182 5.06704C3.68182 4.93068 3.69318 4.79431 3.71591 4.65795C3.73864 4.52159 3.77273 4.39886 3.81818 4.28977L2.49545 2.96704Z" fill="#6D6D6D"/>
</svg>
