<svg width="32" height="5" viewBox="0 0 32 5" fill="none" xmlns="http://www.w3.org/2000/svg">
<path d="M2.3929 4.8C1.73097 4.8 1.16667 4.5643 0.7 4.0929C0.233333 3.62153 0 3.05487 0 2.3929C0 1.73097 0.2357 1.16667 0.7071 0.7C1.17847 0.233333 1.74513 0 2.4071 0C3.06903 0 3.63333 0.235701 4.1 0.707101C4.56667 1.17847 4.8 1.74513 4.8 2.4071C4.8 3.06903 4.5643 3.63333 4.0929 4.1C3.62153 4.56667 3.05487 4.8 2.3929 4.8ZM15.9929 4.8C15.331 4.8 14.7667 4.5643 14.3 4.0929C13.8333 3.62153 13.6 3.05487 13.6 2.3929C13.6 1.73097 13.8357 1.16667 14.3071 0.7C14.7785 0.233333 15.3451 0 16.0071 0C16.669 0 17.2333 0.235701 17.7 0.707101C18.1667 1.17847 18.4 1.74513 18.4 2.4071C18.4 3.06903 18.1643 3.63333 17.6929 4.1C17.2215 4.56667 16.6549 4.8 15.9929 4.8ZM29.5929 4.8C28.931 4.8 28.3667 4.5643 27.9 4.0929C27.4333 3.62153 27.2 3.05487 27.2 2.3929C27.2 1.73097 27.4357 1.16667 27.9071 0.7C28.3785 0.233333 28.9451 0 29.6071 0C30.269 0 30.8333 0.235701 31.3 0.707101C31.7667 1.17847 32 1.74513 32 2.4071C32 3.06903 31.7643 3.63333 31.2929 4.1C30.8215 4.56667 30.2549 4.8 29.5929 4.8Z" fill="#6D6D6D"/>
</svg>
