<svg width="13" height="12" viewBox="0 0 13 12" fill="none" xmlns="http://www.w3.org/2000/svg">
<path d="M6 12C5.15 12 4.36 11.8475 3.63 11.5425C2.9 11.2375 2.265 10.815 1.725 10.275C1.185 9.735 0.7625 9.1 0.4575 8.37C0.1525 7.64 0 6.85 0 6C0 5.16 0.1525 4.375 0.4575 3.645C0.7625 2.915 1.185 2.28 1.725 1.74C2.265 1.2 2.9 0.775 3.63 0.465C4.36 0.155 5.15 0 6 0C6.75 0 7.45 0.12 8.1 0.36C8.75 0.6 9.335 0.93 9.855 1.35L9.21 1.995C8.77 1.645 8.28 1.375 7.74 1.185C7.2 0.995 6.62 0.9 6 0.9C4.55 0.9 3.3375 1.3875 2.3625 2.3625C1.3875 3.3375 0.9 4.55 0.9 6C0.9 7.45 1.3875 8.6625 2.3625 9.6375C3.3375 10.6125 4.55 11.1 6 11.1C7.45 11.1 8.6625 10.6125 9.6375 9.6375C10.6125 8.6625 11.1 7.45 11.1 6C11.1 5.7 11.0775 5.4075 11.0325 5.1225C10.9875 4.8375 10.92 4.56 10.83 4.29L11.52 3.6C11.68 3.97 11.8 4.355 11.88 4.755C11.96 5.155 12 5.57 12 6C12 6.85 11.845 7.64 11.535 8.37C11.225 9.1 10.8 9.735 10.26 10.275C9.72 10.815 9.085 11.2375 8.355 11.5425C7.625 11.8475 6.84 12 6 12ZM5.115 8.73L2.64 6.24L3.315 5.565L5.115 7.365L11.325 1.155L12.015 1.83L5.115 8.73Z" fill="#6D6D6D"/>
</svg>
